<?xml version="1.0" standalone="no"?>
<!DOCTYPE svg PUBLIC "-//W3C//DTD SVG 20010904//EN"
 "http://www.w3.org/TR/2001/REC-SVG-20010904/DTD/svg10.dtd">
<svg version="1.0" xmlns="http://www.w3.org/2000/svg"
 width="576.000000pt" height="93.000000pt" viewBox="0 0 576.000000 93.000000"
 preserveAspectRatio="xMidYMid meet">

<g transform="translate(0.000000,93.000000) scale(0.100000,-0.100000)"
fill="#000000" stroke="none">
<path d="M4495 830 c3 -5 12 -7 20 -3 21 7 19 13 -6 13 -11 0 -18 -4 -14 -10z"/>
<path d="M5359 813 c-40 -21 -61 -40 -84 -77 -27 -44 -30 -58 -30 -127 0 -70
3 -81 30 -121 43 -61 104 -92 180 -92 33 0 71 6 83 13 22 12 23 11 17 -11 -17
-53 -35 -68 -108 -92 -10 -3 -40 3 -67 15 -38 16 -52 18 -69 9 -27 -14 -28
-59 -1 -93 59 -75 236 -54 303 35 53 70 60 97 65 230 6 161 -5 205 -67 269
-73 74 -159 89 -252 42z m161 -112 c56 -40 51 -128 -9 -168 -49 -33 -86 -30
-127 11 -46 46 -48 101 -4 145 44 44 89 48 140 12z"/>
<path d="M3792 804 c-62 -31 -106 -81 -128 -146 -13 -40 -13 -52 -2 -75 10
-21 20 -28 43 -28 25 0 34 7 55 47 48 89 106 127 169 113 41 -9 61 -44 61
-106 0 -75 -27 -105 -149 -168 -54 -28 -111 -65 -126 -82 -42 -51 -66 -107
-63 -147 l3 -37 194 2 c156 2 198 5 217 18 27 18 31 51 10 81 -12 16 -31 20
-133 24 l-118 5 76 37 c94 44 155 98 185 163 28 58 30 111 9 183 -18 61 -57
110 -102 128 -54 23 -142 18 -201 -12z"/>
<path d="M4428 823 c6 -2 18 -2 25 0 6 3 1 5 -13 5 -14 0 -19 -2 -12 -5z"/>
<path d="M4568 823 c6 -2 18 -2 25 0 6 3 1 5 -13 5 -14 0 -19 -2 -12 -5z"/>
<path d="M4985 823 c-65 -4 -95 -22 -95 -58 0 -30 28 -53 70 -57 l35 -3 -4
-225 c-2 -124 -1 -239 3 -257 9 -37 52 -61 84 -44 16 9 20 26 25 132 4 67 7
202 7 301 0 165 -1 179 -20 198 -11 11 -26 19 -32 18 -7 -1 -40 -3 -73 -5z"/>
<path d="M691 794 c-17 -14 -31 -30 -31 -36 0 -5 -13 -22 -29 -37 -35 -33 -47
-91 -31 -152 10 -35 29 -61 95 -124 74 -72 105 -110 105 -131 0 -4 -14 12 -31
35 -16 24 -46 49 -64 57 -40 16 -134 18 -187 4 -41 -12 -130 -68 -136 -87 -2
-7 12 -19 30 -26 18 -8 57 -34 85 -57 46 -38 51 -45 36 -55 -14 -10 -10 -15
30 -30 36 -14 67 -16 144 -13 85 3 105 8 152 33 68 37 93 70 98 132 10 95 -8
127 -127 243 -101 99 -130 134 -130 159 0 25 45 8 87 -34 24 -25 49 -45 54
-45 12 0 12 17 -1 25 -5 3 -10 16 -10 29 0 36 -23 57 -75 71 -47 11 -48 13
-26 24 20 11 28 9 63 -15 22 -15 46 -37 54 -48 21 -30 25 -15 8 34 -19 55 -38
69 -91 70 -30 0 -50 -7 -72 -26z m83 -269 c95 -86 126 -133 126 -192 -1 -64
-54 -158 -83 -147 -14 5 -12 11 10 45 32 49 34 118 5 176 -12 23 -54 68 -96
104 -79 66 -104 108 -90 151 6 21 8 20 24 -17 11 -26 49 -69 104 -120z"/>
<path d="M4355 803 c-16 -9 -35 -22 -43 -30 -7 -7 -22 -18 -32 -23 -21 -11
-100 -138 -100 -160 0 -13 15 -5 15 8 1 4 13 30 28 58 29 57 87 112 151 144
22 11 34 20 26 20 -8 -1 -28 -8 -45 -17z"/>
<path d="M4620 813 c24 -9 110 -65 110 -72 0 -3 -4 -12 -9 -20 -8 -12 -12 -12
-25 -2 -9 7 -13 17 -10 22 5 9 -11 14 -31 9 -5 -1 -23 -2 -38 -2 l-28 1 23
-19 23 -18 -28 -13 -27 -12 31 -19 32 -19 -22 -22 c-18 -18 -24 -20 -41 -9
-11 7 -20 8 -20 3 0 -5 8 -12 17 -15 14 -6 15 -9 2 -21 -18 -19 -56 -9 -62 16
-4 14 0 19 14 19 10 0 19 5 19 10 0 6 -6 10 -14 10 -7 0 -16 11 -18 25 -5 21
-2 25 21 25 l26 0 -25 13 c-14 7 -26 20 -28 30 -3 14 4 17 34 17 34 0 36 1 19
13 -17 13 -17 14 4 20 11 3 21 10 21 16 0 14 -11 14 -46 1 -21 -8 -29 -8 -36
2 -5 9 -8 4 -8 -14 0 -23 -4 -28 -26 -28 -30 0 -124 -39 -124 -51 0 -15 -27
-10 -40 6 -7 9 -15 13 -18 10 -3 -3 2 -13 11 -23 15 -17 15 -21 -9 -55 -13
-20 -20 -37 -15 -37 5 0 12 9 16 19 10 31 32 46 50 31 13 -11 13 -16 -1 -44
l-15 -31 20 25 20 25 32 -33 c17 -18 25 -32 18 -31 -25 4 -66 -19 -72 -40 -10
-38 -30 -24 -24 17 l5 37 -11 -37 c-8 -30 -16 -38 -33 -38 -18 0 -24 7 -27 33
l-4 32 -1 -33 c-2 -31 -4 -33 -34 -30 -25 2 -34 9 -39 28 -5 16 -7 4 -7 -35 0
-39 2 -51 7 -35 5 19 14 26 39 28 29 3 32 1 32 -25 0 -32 -40 -59 -59 -40 -8
8 -11 6 -11 -6 0 -9 5 -17 11 -17 5 0 8 -4 5 -9 -17 -27 86 -150 157 -188 50
-25 39 -8 -14 26 -50 31 -51 32 -34 51 22 25 29 25 63 0 15 -10 41 -22 57 -25
l30 -5 -29 11 c-16 6 -37 19 -47 27 -17 15 -17 16 2 29 10 8 29 12 42 8 18 -5
17 -3 -5 10 -16 9 -28 19 -28 24 0 17 38 41 56 35 16 -5 16 -4 4 5 -13 10 -11
15 15 38 l30 27 3 -29 c2 -17 -2 -33 -10 -40 -16 -11 -30 -41 -33 -68 -1 -11
7 -20 22 -23 32 -8 32 -51 1 -57 l-23 -4 23 -2 c17 -1 22 -7 22 -30 0 -26 -4
-30 -32 -34 -18 -2 1 -4 42 -4 41 0 60 2 43 4 -29 4 -33 8 -33 32 0 24 5 29
29 33 16 2 39 1 51 -4 18 -6 28 -1 53 27 34 38 48 43 67 20 18 -21 1 -38 -73
-75 -65 -32 -58 -42 8 -11 60 28 123 87 150 142 14 26 25 54 25 61 0 7 -11 -9
-24 -37 -13 -27 -32 -58 -43 -68 -19 -16 -21 -16 -37 2 -18 19 -17 21 3 47 12
15 21 32 21 38 0 6 -8 -1 -18 -16 -12 -21 -22 -26 -37 -22 -30 9 -30 12 -11
44 20 34 8 41 -13 8 -14 -22 -14 -22 -22 -3 -13 35 -10 45 16 45 27 0 33 18
13 38 -9 9 -7 12 9 12 12 0 24 -6 26 -12 4 -10 6 -10 6 0 1 6 13 12 27 12 21
0 25 -4 21 -20 -3 -11 -1 -23 4 -26 5 -3 9 6 9 20 0 21 5 25 38 29 l37 4 -37
1 c-34 2 -38 5 -38 28 0 14 -4 23 -9 20 -5 -3 -7 -15 -4 -26 4 -16 0 -20 -20
-20 -16 0 -27 7 -30 18 -4 16 -5 16 -6 0 0 -10 -8 -18 -17 -18 -11 0 -13 6 -9
19 4 13 0 23 -12 30 -15 8 -15 10 -2 11 8 0 20 -5 27 -12 20 -20 15 13 -9 51
-11 18 -18 35 -16 38 5 4 70 -47 75 -59 2 -5 7 -8 11 -8 15 0 -2 55 -26 84
-18 22 -21 31 -12 42 6 8 17 14 25 14 16 0 51 -48 69 -97 7 -21 14 -31 14 -22
2 36 -51 118 -102 157 -59 45 -90 62 -109 61 -9 0 -8 -2 2 -6z m-120 -88 c0
-17 -6 -25 -17 -26 -17 -1 -17 -2 0 -6 18 -5 25 -53 7 -53 -5 0 -10 -5 -10
-11 0 -5 5 -7 10 -4 6 3 10 -5 10 -18 0 -30 -37 -44 -59 -22 -13 12 -12 15 2
21 9 3 17 10 17 15 0 5 -9 4 -20 -3 -17 -11 -23 -9 -41 9 l-22 21 39 21 c46
24 37 28 -12 5 -28 -14 -37 -14 -50 -3 -14 11 -13 15 8 32 34 27 79 46 111 47
22 0 27 -4 27 -25z m163 -101 c3 -3 -3 -14 -14 -25 -25 -25 -47 -14 -23 12 18
20 27 23 37 13z m-353 -133 c0 -5 -7 -11 -15 -15 -8 -3 -15 -12 -15 -21 0 -8
-4 -15 -10 -15 -5 0 -10 14 -10 30 0 25 4 30 25 30 14 0 25 -4 25 -9z m100
-72 c0 -4 -7 -12 -15 -19 -12 -10 -17 -5 -30 25 -17 41 -19 58 -8 69 6 6 53
-60 53 -75z m70 77 c0 -3 -4 -8 -10 -11 -5 -3 -10 -1 -10 4 0 6 5 11 10 11 6
0 10 -2 10 -4z m-47 -59 c-4 -6 -12 -3 -20 8 -20 28 -16 41 7 20 11 -10 17
-22 13 -28z m-114 -104 c3 -2 -5 -14 -18 -26 l-22 -22 -30 33 c-32 35 -40 64
-12 41 15 -12 16 -12 10 3 -5 14 -1 14 31 -4 20 -12 39 -23 41 -25z m242 -50
c7 -20 5 -23 -16 -23 -20 0 -25 5 -25 26 0 32 29 30 41 -3z"/>
<path d="M1910 681 c0 -115 1 -119 23 -125 38 -10 65 -7 105 14 34 18 38 24
34 48 -2 15 -11 34 -18 42 -11 14 -8 19 26 40 46 28 51 45 16 54 -13 3 -26 15
-29 26 -5 18 -13 20 -81 20 l-76 0 0 -119z"/>
<path d="M2340 780 c-6 -12 -23 -26 -38 -31 l-27 -11 22 -16 c12 -9 33 -24 45
-34 19 -13 21 -19 11 -29 -20 -20 -18 -223 2 -239 22 -18 18 -35 -11 -49 -22
-10 -24 -14 -13 -27 18 -22 -7 -40 -77 -54 -85 -18 -191 11 -179 49 4 13 -3
24 -21 36 l-26 17 26 27 c30 31 34 61 9 61 -9 0 -24 6 -32 14 -11 10 -32 12
-68 9 l-53 -6 0 -76 c0 -87 19 -137 71 -189 116 -117 316 -122 442 -12 82 73
87 93 87 353 l0 227 -80 0 c-70 0 -81 -2 -90 -20z"/>
<path d="M183 783 l-33 -4 0 -320 0 -319 85 0 85 0 0 303 c0 166 -3 312 -6
325 -6 19 -12 22 -53 20 -25 0 -61 -3 -78 -5z"/>
<path d="M1082 468 l3 -323 84 -3 84 -3 -7 173 c-4 95 -3 169 1 164 4 -4 35
-58 69 -119 l61 -112 54 0 54 0 62 125 61 125 1 -177 c1 -110 5 -179 11 -183
6 -4 44 -3 85 0 l75 7 0 173 c0 94 -3 240 -7 324 l-6 152 -94 -3 -95 -3 -71
-152 c-39 -84 -74 -153 -77 -153 -3 0 -39 62 -79 138 -41 75 -81 145 -89 155
-12 14 -31 17 -99 17 l-83 0 2 -322z"/>
<path d="M2640 465 l0 -326 83 3 82 3 5 164 5 164 130 -147 c72 -81 137 -156
147 -167 13 -15 30 -19 82 -19 l66 0 0 325 0 326 -82 -3 -83 -3 -5 -175 -5
-175 -50 61 c-27 34 -95 114 -150 177 l-100 116 -62 0 -63 1 0 -325z"/>
<path d="M4260 590 c0 -5 5 -10 11 -10 5 0 7 5 4 10 -3 6 -8 10 -11 10 -2 0
-4 -4 -4 -10z"/>
<path d="M4830 550 c0 -11 5 -20 10 -20 6 0 10 9 10 20 0 11 -4 20 -10 20 -5
0 -10 -9 -10 -20z"/>
<path d="M4830 464 c0 -14 4 -23 10 -19 6 3 10 15 10 26 0 10 -4 19 -10 19 -5
0 -10 -12 -10 -26z"/>
<path d="M4701 454 c0 -11 3 -14 6 -6 3 7 2 16 -1 19 -3 4 -6 -2 -5 -13z"/>
<path d="M4750 419 c0 -5 5 -7 10 -4 6 3 10 8 10 11 0 2 -4 4 -10 4 -5 0 -10
-5 -10 -11z"/>
<path d="M4408 193 c7 -3 16 -2 19 1 4 3 -2 6 -13 5 -11 0 -14 -3 -6 -6z"/>
</g>
</svg>
